HIERARCHY
ROOT Hip
{
    OFFSET 0.0 0.0 0.0
    CHANNELS 6 Xposition Yposition Zposition Zrotation Xrotation Yrotation
    JOINT RightHip
    {
        OFFSET -13.53016471862793 0.0 0.0
        CHANNELS 3 Zrotation Xrotation Yrotation
        JOINT RightKnee
        {
            OFFSET 0.0 0.0 -41.06925582885742
            CHANNELS 3 Zrotation Xrotation Yrotation
            JOINT RightAnkle
            {
                OFFSET 0.0 0.0 -43.31587600708008
                CHANNELS 3 Zrotation Xrotation Yrotation
                End Site
                {
                    OFFSET 0.0 -17.326351165771484 0.0
                }
            }
        }
    }
    JOINT LeftHip
    {
        OFFSET 13.53016471862793 0.0 0.0
        CHANNELS 3 Zrotation Xrotation Yrotation
        JOINT LeftKnee
        {
            OFFSET 0.0 0.0 -41.06925582885742
            CHANNELS 3 Zrotation Xrotation Yrotation
            JOINT LeftAnkle
            {
                OFFSET 0.0 0.0 -43.31587600708008
                CHANNELS 3 Zrotation Xrotation Yrotation
                End Site
                {
                    OFFSET 0.0 -17.326351165771484 0.0
                }
            }
        }
    }
    JOINT Spine
    {
        OFFSET 0.0 0.0 44.37949752807617
        CHANNELS 3 Zrotation Xrotation Yrotation
        JOINT Thorax
        {
            OFFSET 0.0 0.0 15.433497428894043
            CHANNELS 3 Zrotation Xrotation Yrotation
            JOINT Neck
            {
                OFFSET 0.0 0.0 0.0
                CHANNELS 3 Zrotation Xrotation Yrotation
                End Site
                {
                    OFFSET 0.0 0.0 0.0
                }
            }
            JOINT LeftShoulder
            {
                OFFSET 24.24563980102539 0.0 0.0
                CHANNELS 3 Zrotation Xrotation Yrotation
                JOINT LeftElbow
                {
                    OFFSET 33.23247528076172 0.0 0.0
                    CHANNELS 3 Zrotation Xrotation Yrotation
                    JOINT LeftWrist
                    {
                        OFFSET 28.62566375732422 0.0 0.0
                        CHANNELS 3 Zrotation Xrotation Yrotation
                        End Site
                        {
                            OFFSET 11.450264930725098 0.0 0.0
                        }
                    }
                }
            }
            JOINT RightShoulder
            {
                OFFSET -24.24563980102539 0.0 0.0
                CHANNELS 3 Zrotation Xrotation Yrotation
                JOINT RightElbow
                {
                    OFFSET -33.23247528076172 0.0 0.0
                    CHANNELS 3 Zrotation Xrotation Yrotation
                    JOINT RightWrist
                    {
                        OFFSET -28.62566375732422 0.0 0.0
                        CHANNELS 3 Zrotation Xrotation Yrotation
                        End Site
                        {
                            OFFSET -11.450264930725098 0.0 0.0
                        }
                    }
                }
            }
        }
    }
}
MOTION
Frames: 12
Frame Time: 0.03333333333333333
-3.8708648681640625 71.36681365966797 -95.5355224609375 139.5482489506701 -57.89395826065481 140.7133040990658 -1.3165673655425514 -29.534859614956325 8.562207051435305 15.005873840449313 50.954364052689485 -26.043480316000384 3.1805546814635168e-15 6.3611093629270335e-15 -1.5902773407317584e-15 -2.0949485422583236 -34.860604265147906 -12.602796532995189 -17.435581146776432 60.862209015137786 25.64047199366236 1.3793457181406746e-33 1.987846675914698e-16 -7.951386703658792e-16 -0.6781252775394271 -14.016170448631021 0.12196911643786869 -3.576143015950018 8.60603341243461e-07 8.710305597251062e-07 -12.21908642531255 15.157035869390617 8.908320577705089 -46.92520969464925 35.514282638138184 95.86298876374599 -56.16169204883015 5.607531188306303e-06 -5.237046612591913e-07 0.0 0.0 -6.361109362927035e-15 51.95758297494789 28.773971882162776 -95.03833345013662 57.2046859897581 -2.0480575864711524e-06 -1.4894004394825956e-06 0.0 0.0 -6.3611093629270335e-15
-3.9748687744140625 71.17881774902344 -95.75039672851562 138.96977889203214 -59.46372205523803 140.1827749474248 -0.8481125386217745 -31.52404574382593 8.160168013077447 13.691361940069008 52.532806229992666 -24.226751927419603 3.180554681463516e-15 -6.361109362927032e-15 1.7655625192200634e-31 -1.4446104804621565 -36.54835774346657 -13.026116947287747 -20.36205789535612 60.71993423827106 28.54825619267121 -1.5902773407317582e-15 5.517382872562698e-32 -3.975693351829395e-15 -0.43764457756541064 -14.415879743683822 0.05335177169278604 -2.915737728549183 -2.7887581526508242e-06 7.412539120208638e-07 -5.0003184199266055 18.30921172845427 4.843313598734036 -46.18101446247271 36.131097816019306 94.8456684674313 -57.590875803061756 -1.5375842586272344e-06 -1.3817564008449398e-06 0.0 0.0 0.0 51.45381825972539 29.321903479348897 -94.76942122884489 58.68449699488899 -5.780426211620325e-07 1.182170095953617e-06 -6.3611093629270335e-15 -3.531125038440127e-31 6.3611093629270335e-15
-4.1003265380859375 70.93427276611328 -95.97909545898438 137.90070522872838 -61.83692701296022 139.33684950301398 -0.065249205440034 -34.31691088623171 7.722176281424833 11.715309460259283 54.234273997788016 -21.989855751617167 8.827812596100317e-32 6.361109362927033e-15 -1.5902773407317582e-15 -0.8602536602715629 -38.869473494099324 -13.866946128638016 -23.565954776378327 60.13478512517984 31.988472021756344 0.0 0.0 -7.951386703658792e-16 -0.16421432256615162 -15.013171596428604 -0.05728910483092604 -2.015750919404424 -1.6456099316494323e-06 -2.3457595662680416e-07 -4.70583285798748 20.00472442668294 4.498831843794392 -45.66043064430748 36.88232106400448 93.5840885955978 -59.4940319364678 1.9353274842985237e-06 2.4624129800862326e-06 0.0 -3.1805546814635176e-15 0.0 52.2249339924349 29.43363131694844 -94.48220641538342 60.50037377068653 6.204966498347574e-07 -8.62136335908137e-07 6.3611093629270335e-15 1.7655625192200634e-31 3.1805546814635168e-15
-4.2292633056640625 70.68023681640625 -96.20407104492188 136.37842776376357 -64.38595542171949 138.1486896756487 0.537843035448868 -37.35889325379857 7.172627120668639 10.048708505703162 55.67723682964456 -19.944095862943907 -1.5902773407317584e-15 1.987846675914698e-16 2.758691436281349e-33 -0.5139414610095995 -41.2671692951893 -14.981917481485933 -26.27384028949693 59.40264699606511 35.143586419122094 8.965747167914385e-32 -6.46050169672277e-15 1.5902773407317588e-15 0.008821862856581182 -15.055402441574094 -0.23152285076422102 -0.9326581309943227 5.806294258999131e-06 -2.876928840104051e-07 -4.2030568380181705 21.822316929774555 4.010303168745912 -45.51150295456556 36.998913996640404 91.9167498600716 -61.32509818104023 -6.432254228818353e-07 3.7318283130612703e-08 -6.361109362927033e-15 -2.385416011097637e-15 -1.3241718894150476e-31 52.90560387648806 29.33300232858058 -93.65907168660934 62.78051316398372 3.9052364727541215e-06 -5.371750341925976e-06 0.0 0.0 0.0
-4.353370666503906 70.46990203857422 -96.4075927734375 134.0101541716431 -67.48474427592681 136.295563563781 0.8992421682274935 -40.94427987929812 6.222221453929963 8.085068147145375 56.999662220605934 -17.401652826011727 1.5902773407317582e-15 1.987846675914698e-16 1.5902773407317582e-15 -0.38264561719890544 -43.92943196837487 -16.409707957995806 -28.086350899530608 58.310888709101114 37.517515815279246 3.9756933518293955e-16 9.939233379573489e-17 -3.4483642953516864e-34 0.08634388386887432 -15.760891469684587 -0.5262713720568525 0.2496539990895539 -2.0297806412701074e-06 1.0553747155636306e-07 -3.5046107211284863 23.937179587365772 3.3659363382268057 -44.90413963980611 37.43192500472062 90.35612502192558 -63.338939141422046 3.140975775285339e-06 2.403960064925262e-06 0.0 0.0 0.0 54.510510644465406 29.395457200607016 -93.17065378360677 65.45925234721634 1.144639797823708e-07 8.172885036444992e-07 0.0 0.0 0.0
-4.49639892578125 70.29993438720703 -96.67471313476562 129.23020979156672 -71.17738167083395 132.34465938310095 0.5028481594070762 -45.63365053021979 4.595306584348683 7.106068894996111 58.41425926081468 -15.415506469759885 0.0 0.0 0.0 -0.7054740588045523 -47.25649300361043 -18.32282458994613 -29.531798993184196 56.9079819205437 39.60759024789506 -1.9878466759146976e-15 -6.361109362927033e-15 -1.987846675914699e-16 -0.026721029625649328 -16.780327110052802 -0.9585910057066558 2.0533584210547726 -3.2555331837928963e-06 1.3647729193058998e-06 -2.767331178900867 25.804269554635294 2.47978696671005 -44.5050654968402 37.574033441557894 88.28153456436736 -65.44048183761178 -2.0669968809165203e-07 -5.893464958250365e-06 -6.361109362927032e-15 -3.1805546814635156e-15 -6.361109362927032e-15 55.624996871499135 29.627181078017895 -92.35374833246972 68.70042068231854 -4.021744381608861e-07 7.658108059980059e-07 0.0 0.0 0.0
-4.6269073486328125 70.09606170654297 -96.88790893554688 121.66160761008945 -74.76709277969485 125.78759179263268 -0.6412844558047179 -50.524900632142646 2.2064088543387284 5.675332218910297 59.87496869140525 -12.850891551499917 0.0 -6.4605016967227685e-15 0.0 -1.3761223452022502 -50.817533026251 -20.582052205091312 -30.487641967903834 55.7554682952852 41.17011276066412 -3.9756933518293955e-16 6.896728590703373e-34 -1.9878466759146977e-16 -0.26299513317816064 -17.6753436369328 -1.388990760130615 4.061139346591161 -1.35454541146829e-06 -2.8572749349956353e-07 -1.4344783739197697 27.94104238622181 1.0826638768078707 -44.16075209268857 37.61560097716776 86.1152493345166 -67.66610135015229 2.372757946031721e-06 -1.6118772165575767e-06 0.0 0.0 -6.3611093629270335e-15 56.65423901223098 30.16671738073597 -91.7486816157681 72.47295133195443 -9.74275853605224e-07 -7.277400610028586e-07 -4.4139062980501586e-32 1.5902773407317584e-15 3.1805546814635168e-15
-4.790985107421875 69.67913818359375 -97.01473999023438 103.90884840076338 -77.84284714450722 109.57939020544553 -3.1277662090814595 -56.55516302219685 -1.179943923677377 4.777756515787936 61.063160907404075 -11.040507244656766 7.951386703658794e-16 -9.939233379573492e-17 6.896728590703373e-34 -3.9058681818423633 -55.68618396930775 -24.13007683607457 -30.6725078128064 55.2696227723056 42.07529362594742 1.1927080055488188e-15 6.3611093629270335e-15 -5.963540027744095e-16 -0.8013469651433027 -18.73126704622023 -1.7430151197608366 5.357448806078378 -4.865026761516919e-07 -5.556424254535555e-07 0.3232260518971202 28.933455005076674 -0.6415122597602839 -43.65191959440921 37.57176019771687 83.82027375755331 -70.24811046480606 1.278287799704112e-06 3.030694227305723e-06 0.0 0.0 0.0 58.074729304538366 29.949633785646064 -90.20185052264344 76.06275154946424 6.030827281339421e-07 3.2379875752604797e-06 0.0 0.0 0.0
-4.933380126953125 69.14668273925781 -97.03680419921875 76.37568668575416 -78.62976712348686 83.82051436158704 -7.905566644819556 -63.03559586735209 -6.401038798874142 4.756650143253682 62.295801430941935 -10.033352993586703 0.0 -6.3611093629270335e-15 0.0 -8.720309805814782 -60.91230421981798 -29.389429138933234 -30.478427088865672 55.1172412014581 42.72303098178844 2.981770013872047e-16 1.8103912550596355e-33 6.957463365701443e-16 -1.5570007568568525 -19.408680137513546 -1.87972929904207 6.403618834861235 -1.7377135195687779e-06 1.93701731245984e-06 1.9587569957357935 29.061141306305107 -2.223214226769865 -42.41173854051427 37.4727346241041 80.92307284399706 -73.32497081124671 3.7434759507925907e-07 -8.034119360531083e-07 -4.4139062980501586e-32 7.951386703658792e-16 6.3611093629270335e-15 58.62261253608402 29.792900022788103 -88.0883553218635 80.08132215857995 1.0353897196325087e-06 3.1819865943503464e-06 0.0 1.5902773407317584e-15 0.0
-5.062309265136719 68.63856506347656 -97.0340576171875 50.69982374237572 -76.38245749780235 60.040521019641915 -16.415169083178373 -69.55211122487364 -15.04497100994809 5.359317260770367 63.71131039791366 -9.662654188458223 0.0 0.0 7.951386703658792e-16 -16.25053426700494 -66.24730964917521 -36.89689596058626 -30.555305568041646 55.18202790875487 43.31040184809475 4.969616689786746e-16 -6.3611093629270335e-15 9.93923337957349e-16 -2.344075412292331 -19.721763112192697 -1.9301139890973487 7.007283883994052 2.176649208942555e-06 -4.635994946808603e-07 3.3031519815275514 28.855993237462485 -3.493772659187653 -41.87163589793593 36.56345044116495 77.95935430621626 -75.87035486161022 -6.0304579669685766e-06 8.530534812279131e-07 6.3611093629270335e-15 3.1805546814635168e-15 -1.7655625192200634e-31 58.25011762487171 29.49917207227432 -85.10060003149405 84.03961495568004 1.8033433657075292e-06 -5.652112036028986e-07 0.0 0.0 -3.1805546814635168e-15
-5.0915985107421875 68.12097930908203 -96.8968505859375 36.47600518802793 -71.81636719594782 47.48629789325143 -32.16546350000739 -75.24115794535423 -30.171023222396684 6.481663316743809 64.977283637589 -9.739273397643398 7.951386703658791e-16 0.0 0.0 -28.14602183088355 -71.29235305514798 -47.8126268228537 -29.750266026987983 55.99836993119807 42.96848282963348 1.1927080055488186e-15 -2.4848083448933725e-17 -1.9878466759146977e-16 -2.8647643766071913 -18.443860171905925 -1.129936682653693 6.805449371720455 -3.2699483072352547e-06 -1.932638435448444e-07 4.407234568714067 28.220942168591886 -4.472928697847702 -40.516674577790916 34.965960515148744 74.1316243097014 -79.02645929587374 -8.758691640258662e-07 8.145386309963538e-06 -2.648343778830095e-31 4.770832022195275e-15 6.3611093629270335e-15 56.616475130987936 28.944026474189002 -80.96859994372744 88.42811880949404 8.271014386459191e-07 1.1693326143303565e-06 2.2069531490250793e-32 -1.5902773407317588e-15 1.5902773407317588e-15
-5.021575927734375 67.63346099853516 -96.51736450195312 28.859341731766087 -66.59711708835407 41.314031567688446 -60.944883594738734 -78.64020322149986 -57.957176123136485 7.866031103226584 66.32832965534566 -9.831254481787653 0.0 0.0 -7.951386703658792e-16 -45.816242179568434 -75.10322719958762 -64.21865322638463 -28.781320525731395 56.95568359481549 42.43839455314561 9.939233379573492e-16 6.410805529824903e-15 -5.560487426254594e-32 -3.3531983046342946 -17.707663685651845 -0.4078537042788254 6.361971107536732 -2.0395714225217124e-06 -1.8095405961871566e-07 5.169055973963043 27.58915335276941 -5.146993659710876 -40.21008067719822 33.41566496425187 71.22737682948885 -81.36518466795305 -9.751209665655688e-07 2.8893935572309783e-06 0.0 0.0 -6.3611093629270335e-15 54.626059713696506 28.748305246689338 -77.51775507596966 92.45561317984931 1.8560150781289137e-09 -2.3530306990051877e-07 0.0 0.0 0.0
